<svg width="54" height="34" viewBox="0 0 54 34" fill="none" xmlns="http://www.w3.org/2000/svg">
<path d="M3.17636 21.1757H6.35271C8.10696 21.1757 9.52907 22.5978 9.52907 24.3521V30.7048C9.52907 32.459 8.10696 33.8811 6.35271 33.8811H3.17636C1.4221 33.8811 0 32.459 0 30.7048V24.3521C0 22.5978 1.4221 21.1757 3.17636 21.1757ZM17.9994 14.823H21.1758C22.93 14.823 24.3521 16.2451 24.3521 17.9994V30.7048C24.3521 32.459 22.93 33.8811 21.1758 33.8811H17.9994C16.2452 33.8811 14.8231 32.459 14.8231 30.7048V17.9994C14.8231 16.2451 16.2452 14.823 17.9994 14.823ZM32.8224 7.4115H35.9987C37.753 7.4115 39.1751 8.8336 39.1751 10.5879V30.7048C39.1751 32.459 37.753 33.8811 35.9987 33.8811H32.8224C31.0681 33.8811 29.646 32.459 29.646 30.7048V10.5879C29.646 8.8336 31.0681 7.4115 32.8224 7.4115ZM47.6453 0H50.8217C52.5759 0 53.9981 1.4221 53.9981 3.17636V30.7048C53.9981 32.459 52.5759 33.8811 50.8217 33.8811H47.6453C45.8911 33.8811 44.469 32.459 44.469 30.7048V3.17636C44.469 1.4221 45.8911 0 47.6453 0Z" fill="black"/>
</svg>
