<svg width="61" height="61" viewBox="0 0 61 61" fill="none" xmlns="http://www.w3.org/2000/svg">
<path d="M12.7083 53.375C11.3104 53.375 10.1137 52.8773 9.11823 51.8818C8.12274 50.8863 7.625 49.6896 7.625 48.2917V12.7083C7.625 11.3104 8.12274 10.1137 9.11823 9.11823C10.1137 8.12274 11.3104 7.625 12.7083 7.625H48.2917C49.6896 7.625 50.8863 8.12274 51.8818 9.11823C52.8773 10.1137 53.375 11.3104 53.375 12.7083V48.2917C53.375 49.6896 52.8773 50.8863 51.8818 51.8818C50.8863 52.8773 49.6896 53.375 48.2917 53.375H12.7083ZM12.7083 48.2917H48.2917V12.7083H12.7083V48.2917Z" fill="#1D1B20"/>
</svg>
