<svg width="59" height="71" viewBox="0 0 59 71" fill="none" xmlns="http://www.w3.org/2000/svg">
<path d="M21.6441 2.8292C23.3336 3.19705 26.7431 20.0485 26.371 21.7574C25.6269 25.1752 19.8142 27.4894 17.3805 30.5394C14.9469 33.5893 17.5818 37.7428 20.2167 41.8963C21.2443 43.5161 25.4865 50.2033 29.2376 49.2301C32.9887 48.2568 37.4839 43.8659 40.863 44.6016C42.5525 44.9694 56.2699 55.1156 55.8978 56.8245C54.4096 63.6601 48.2248 67.6832 42.7842 68.2886C37.3436 68.8939 33.9645 68.1582 27.5785 64.978C21.1925 61.7977 16.496 58.9852 9.90877 48.6015C3.3215 38.2178 2.74818 32.7233 2.54692 25.5199C2.34567 18.3164 3.0898 14.8986 5.89551 10.1398C8.70123 5.38096 14.886 1.35781 21.6441 2.8292Z" stroke="#4157FF" stroke-width="5" stroke-linecap="round" stroke-linejoin="round"/>
</svg>
