<svg width="18" height="18" viewBox="0 0 18 18" fill="none" xmlns="http://www.w3.org/2000/svg">
<path d="M4.74843 13.1807C4.48793 13.1807 4.2312 13.1687 3.97672 13.1453L0 17.122C2.39183 18.038 4.99779 18.2416 7.50285 17.7081C10.0079 17.1746 12.3048 15.9269 14.1159 14.1159C15.9269 12.3048 17.1746 10.0079 17.7081 7.50285C18.2416 4.99779 18.038 2.39183 17.122 0L13.1453 3.97672C13.1687 4.2312 13.1807 4.48793 13.1807 4.74843C13.1813 5.85594 12.9636 6.9527 12.54 7.97602C12.1165 8.99934 11.4954 9.92914 10.7123 10.7123C9.92914 11.4954 8.99934 12.1165 7.97602 12.54C6.9527 12.9636 5.85594 13.1813 4.74843 13.1807Z" fill="#4B4B4B"/>
</svg>
