<svg width="56" height="49" viewBox="0 0 56 49" fill="none" xmlns="http://www.w3.org/2000/svg">
<path d="M52.6637 19.1648L7.48255 0.417309C5.57914 -0.372579 3.42876 -0.0251024 1.87075 1.32368C0.312742 2.67268 -0.338899 4.75119 0.170339 6.74801L4.19186 22.5186H23.8817C24.7878 22.5186 25.5224 23.2532 25.5224 24.1593C25.5224 25.0654 24.7879 25.8 23.8817 25.8H4.19186L0.170339 41.5706C-0.338899 43.5675 0.312633 45.646 1.87075 46.9949C3.43194 48.3464 5.58253 48.6896 7.48266 47.9013L52.6638 29.1538C54.7209 28.3003 55.9987 26.3865 55.9987 24.1593C55.9987 21.9322 54.7209 20.0183 52.6637 19.1648Z" fill="white"/>
</svg>
