<svg width="64" height="56" viewBox="0 0 64 56" fill="none" xmlns="http://www.w3.org/2000/svg">
<path d="M62.9284 26.566C60.3745 21.1855 57.3353 16.7974 53.8107 13.4017L50.1142 17.0981C53.1285 19.9787 55.7541 23.7472 58.0245 28.4404C51.9799 40.9509 43.3998 46.8938 31.674 46.8938C28.1543 46.8938 24.9123 46.3518 21.9482 45.2678L17.9429 49.2731C22.0598 51.1741 26.6368 52.1246 31.674 52.1246C45.6375 52.1246 56.0556 44.8523 62.9284 30.3075C63.2047 29.7226 63.348 29.0837 63.348 28.4368C63.348 27.7899 63.2047 27.151 62.9284 26.566ZM58.31 3.2712L55.2129 0.17046C55.1589 0.116422 55.0948 0.0735527 55.0242 0.0443038C54.9537 0.015055 54.8781 0 54.8017 0C54.7253 0 54.6497 0.015055 54.5791 0.0443038C54.5086 0.0735527 54.4445 0.116422 54.3905 0.17046L46.4446 8.11267C42.0638 5.87502 37.1402 4.75619 31.674 4.75619C17.7105 4.75619 7.29231 12.0286 0.419525 26.5733C0.143272 27.1582 0 27.7971 0 28.444C0 29.091 0.143272 29.7298 0.419525 30.3148C3.16525 36.0978 6.47087 40.7332 10.3364 44.2209L2.64846 51.9067C2.53954 52.0157 2.47836 52.1634 2.47836 52.3175C2.47836 52.4716 2.53954 52.6194 2.64846 52.7284L5.74993 55.8298C5.85891 55.9387 6.00669 55.9999 6.16077 55.9999C6.31485 55.9999 6.46262 55.9387 6.57161 55.8298L58.31 4.09361C58.364 4.03963 58.4069 3.97553 58.4362 3.90498C58.4654 3.83442 58.4805 3.75879 58.4805 3.68241C58.4805 3.60603 58.4654 3.5304 58.4362 3.45984C58.4069 3.38928 58.364 3.32518 58.31 3.2712ZM5.32347 28.4404C11.3753 15.9299 19.9554 9.98706 31.674 9.98706C35.6364 9.98706 39.2391 10.6671 42.5077 12.0496L37.4003 17.157C34.9815 15.8664 32.212 15.3875 29.5003 15.7908C26.7886 16.194 24.2783 17.4582 22.3397 19.3968C20.4012 21.3353 19.137 23.8456 18.7337 26.5573C18.3304 29.269 18.8094 32.0386 20.0999 34.4574L14.0394 40.5179C10.6851 37.5574 7.7936 33.5463 5.32347 28.4404ZM23.2465 28.4404C23.2477 27.1593 23.5512 25.8966 24.1322 24.7548C24.7131 23.613 25.5552 22.6244 26.5901 21.8692C27.6249 21.114 28.8233 20.6136 30.0879 20.4086C31.3525 20.2036 32.6476 20.2997 33.868 20.6893L23.6322 30.9251C23.3757 30.1218 23.2455 29.2836 23.2465 28.4404Z" fill="#4B4B4B"/>
</svg>
