<svg width="49" height="35" viewBox="0 0 49 35" fill="none" xmlns="http://www.w3.org/2000/svg">
<path d="M24.3746 7.26879C31.4473 7.2691 38.2495 9.98673 43.3754 14.86C43.7614 15.2362 44.3784 15.2315 44.7585 14.8493L48.4483 11.1256C48.6408 10.9318 48.7481 10.6692 48.7465 10.3961C48.7449 10.1229 48.6345 9.86164 48.4397 9.6701C34.9859 -3.22336 13.7611 -3.22336 0.307339 9.6701C0.11245 9.8615 0.00181924 10.1227 2.22494e-05 10.3958C-0.00177474 10.669 0.105345 10.9316 0.297696 11.1256L3.98851 14.8493C4.36843 15.232 4.98592 15.2368 5.37168 14.86C10.4982 9.98641 17.3012 7.26878 24.3746 7.26879ZM24.3746 19.3838C28.2605 19.3836 32.0079 20.828 34.8884 23.4364C35.278 23.8066 35.8918 23.7985 36.2715 23.4183L39.957 19.6945C40.1511 19.4992 40.2587 19.2342 40.2559 18.9589C40.2531 18.6835 40.1401 18.4208 39.9421 18.2295C31.1704 10.07 17.5862 10.07 8.8145 18.2295C8.61636 18.4208 8.50335 18.6837 8.50076 18.9591C8.49816 19.2345 8.60618 19.4995 8.80067 19.6945L12.4852 23.4183C12.8649 23.7985 13.4786 23.8066 13.8682 23.4364C16.7468 20.8297 20.4911 19.3854 24.3746 19.3838ZM31.4572 28.2709C31.6544 28.0774 31.7629 27.8112 31.7573 27.5351C31.7516 27.259 31.6323 26.9975 31.4274 26.8122C27.3561 23.3686 21.3931 23.3686 17.3218 26.8122C17.1168 26.9973 16.9973 27.2588 16.9915 27.5349C16.9856 27.811 17.0939 28.0773 17.2909 28.2709L23.6671 34.7045C23.854 34.8936 24.1087 35 24.3746 35C24.6404 35 24.8952 34.8936 25.0821 34.7045L31.4572 28.2709Z" fill="black"/>
</svg>
